<svg xmlns="http://www.w3.org/2000/svg" xmlns:xlink="http://www.w3.org/1999/xlink" version="1.1" x="0px" y="0px" viewBox="0 0 90 112.5" style="enable-background:new 0 0 90 90;" xml:space="preserve"><path class="svg-path" d="M54.3468094,27.5085449c-0.0019531-0.0981445-0.0512695-0.2246094-0.2441406-0.2607422l-10.5581055-3.5732422  c-0.012207-0.0043945-0.0297852-0.0078125-0.0473633-0.0102539c0-0.0302734,0.0024414-0.0673828,0.0039063-0.0957031  c0.0048828-0.0825195,0.0078125-0.1650391,0-0.2006836v-7.1728516h2.9472656c0.0869141,0,0.1674805-0.0449219,0.2128906-0.1191406  c0.0454102-0.0737305,0.0493164-0.1660156,0.0102539-0.2436523l-3.1972656-6.324707  c-0.0849609-0.1679688-0.3613281-0.1679688-0.4462891,0l-3.1977539,6.324707  c-0.0390625,0.0776367-0.0351563,0.1699219,0.0102539,0.2436523c0.0454102,0.0742188,0.1259766,0.1191406,0.2128906,0.1191406  h2.9478149l0.0023804,7.2084961c0.0058594,0.0410156,0.0014648,0.0883789-0.0014648,0.1357422  c-0.0083008,0.1435547-0.0200195,0.340332,0.1157227,0.4853516c0.074707,0.0800781,0.175293,0.125,0.2998047,0.1347656  l9.8344727,3.3242188l-17.3613281,4.4594727c-0.1206055,0.0283203-0.246582,0.1557617-0.2363281,0.2788086  c0.0092773,0.1147461,0.1298828,0.2148438,0.2431641,0.2329102l15.3530273,2.4799805L38.21595,38.3806152  c-0.0390625,0.0117188-0.0864258,0.0234375-0.1333008,0.0356445c-0.1357422,0.0336914-0.222168,0.0561523-0.2880859,0.09375  c-0.0898438,0.0507813-0.1386719,0.1518555-0.1240234,0.2539063c0.0151367,0.1020508,0.0917969,0.184082,0.1923828,0.2070313  l12.5986328,2.8706055l-7.800293,4.8364258c-0.034668,0.0200195-0.0986328,0.0742188-0.1201172,0.1083984  c-0.0410156,0.0654297-0.0493164,0.1459961-0.0224609,0.21875c0.0263672,0.0727539,0.0854492,0.1289063,0.1591797,0.1518555  l8.8598633,2.7978516L35.856575,56.1950684c-0.1030273,0.0385742-0.2099609,0.1635742-0.203125,0.2734375  c0.0058594,0.09375,0.0952148,0.1918945,0.1816406,0.2290039l6.6293945,2.862793  c0.0239258,0.0102539,0.0488281,0.0166016,0.074707,0.0195313c0.4633789,0.0454102,0.4941406,0.2875977,0.4633789,0.9677734  c-0.0087891,0.1923828-0.0166016,0.3852539-0.0014648,0.5380859v12.7080078h-2.9477539  c-0.0869141,0-0.1674805,0.0449219-0.2128906,0.1191406c-0.0454102,0.0737305-0.0493164,0.1660156-0.0102539,0.2436523  l3.1977539,6.324707c0.0424805,0.0839844,0.1289063,0.137207,0.2231445,0.137207s0.1806641-0.0532227,0.2231445-0.137207  l3.1972656-6.324707c0.0390625-0.0776367,0.0351563-0.1699219-0.0102539-0.2436523  c-0.0454102-0.0742188-0.1259766-0.1191406-0.2128906-0.1191406h-2.9472656l-0.0009766-12.730957  c-0.0146484-0.1547852-0.0058594-0.3237305,0.0014648-0.4926758c0.0249023-0.5463867,0.0620117-1.3681641-0.8730469-1.4833984  l-6.0834961-2.6269531l15.7675781-6.2749023c0.1064453-0.0400391,0.2177734-0.1713867,0.2060547-0.284668  c-0.0102539-0.0991211-0.1142578-0.1958008-0.2094727-0.2255859l-8.965332-2.831543l7.8208008-4.8496094  c0.0883789-0.0473633,0.1918945-0.1811523,0.1821289-0.28125c-0.0097656-0.1074219-0.0966797-0.2036133-0.2021484-0.2275391  l-12.1987305-2.7792969l12.9785156-3.4321289c0.0532227-0.0170898,0.1289063-0.0351563,0.2041016-0.0532227  c0.2895508-0.0703125,0.5180664-0.1259766,0.496582-0.3696289c-0.0214844-0.2451172-0.2807617-0.2612305-0.4458008-0.2705078  l-15.0654297-2.4345703l16.9414063-4.3515625C54.1436844,27.7727051,54.3507156,27.723877,54.3468094,27.5085449z   M40.4600906,15.6950684l2.7910156-5.5205078l2.7905273,5.5205078H40.4600906z M46.0416336,74.2937012l-2.7905273,5.5205078  l-2.7910156-5.5205078H46.0416336z"/><text x="0" y="105" fill="#000000" font-size="5px" font-weight="bold" font-family="'Helvetica Neue', Helvetica, Arial-Unicode, Arial, Sans-serif"></text><text x="0" y="110" fill="#000000" font-size="5px" font-weight="bold" font-family="'Helvetica Neue', Helvetica, Arial-Unicode, Arial, Sans-serif"></text></svg>